<svg width="1898" height="296" viewBox="0 0 1898 296" fill="none" xmlns="http://www.w3.org/2000/svg">
<path d="M68.9139 209.392C43.2921 209.392 23.2364 201.706 8.74677 186.333C2.91559 179.618 0 173.08 0 166.719C0 158.767 2.82724 151.787 8.48172 145.779C13.6061 140.478 18.9072 137.209 24.3849 135.973C28.9792 146.928 34.8104 156.205 41.8785 163.803C49.1233 171.225 57.6933 174.935 67.5887 174.935C78.5442 174.935 86.6725 172.462 91.9736 167.514C97.2747 162.566 99.9252 156.028 99.9252 147.9C99.9252 139.595 97.0096 133.145 91.1784 128.551C85.3473 123.957 76.6005 120.069 64.9381 116.889C43.7338 111.411 27.7423 101.074 16.9634 85.8774C10.4254 76.5121 7.15645 65.4682 7.15645 52.7457C7.15645 35.6055 13.9595 22.1762 27.5656 12.4575C33.5735 8.39336 40.4649 5.30107 48.2398 3.18065C56.1914 1.06022 64.4964 0 73.1548 0C86.0541 0 97.1863 1.76703 106.552 5.30108C119.097 10.072 125.37 17.3168 125.37 27.0355C125.37 31.9831 123.868 36.8425 120.864 41.6134C118.037 46.2077 114.326 49.565 109.732 51.6855C104.785 45.6776 99.4835 41.0833 93.829 37.9027C88.1745 34.5453 81.2831 32.8667 73.1548 32.8667C65.3799 32.8667 58.4001 34.6337 52.2156 38.1677C46.2077 41.7018 43.2037 47.0912 43.2037 54.336C43.2037 60.874 46.1193 66.6168 51.9505 71.5645C57.9584 76.5122 66.4401 80.488 77.3957 83.4919C98.0698 88.9697 113.443 96.9213 123.515 107.347C133.587 117.772 138.623 131.643 138.623 148.96C138.623 167.514 132.262 182.18 119.539 192.959C113.355 198.26 105.933 202.324 97.2747 205.151C88.793 207.979 79.3394 209.392 68.9139 209.392Z" fill="black"/>
<path d="M252.314 205.417C245.423 205.417 239.68 204.886 235.086 203.826C230.668 202.766 227.576 200.557 225.809 197.2C224.042 194.373 221.568 188.453 218.388 179.441L178.63 68.1188C173.329 54.336 168.734 43.2921 164.847 34.9871C160.959 26.5054 156.277 19.5256 150.799 14.0479C158.044 8.57007 166.79 5.83118 177.039 5.83118C181.81 5.83118 185.786 6.27294 188.967 7.15645C192.324 8.03996 195.063 9.80699 197.183 12.4575C198.244 13.8711 200.099 18.6421 202.749 26.7704C205.4 34.722 207.962 42.762 210.436 50.8903L215.737 67.3236L249.134 160.888L287.567 53.2758C291.984 40.9066 294.193 30.5695 294.193 22.2645C294.193 18.9072 293.751 15.7265 292.868 12.7226C296.402 10.6022 300.289 9.01183 304.53 7.95162C308.948 6.89139 313.277 6.36128 317.518 6.36128C323.172 6.36128 327.943 7.15644 331.831 8.74677C335.718 10.3371 337.662 12.5459 337.662 15.3731C337.662 19.7907 333.156 33.3968 324.144 56.1914C320.963 64.4964 318.931 70.0625 318.048 72.8898L278.82 182.092C277.936 184.212 277.495 186.863 277.495 190.043C277.495 194.108 278.466 197.465 280.41 200.115C272.459 203.65 263.093 205.417 252.314 205.417Z" fill="black"/>
<path d="M435.955 178.637C438.782 178.637 441.786 178.195 444.967 177.312C446.027 179.255 446.557 182.259 446.557 186.323C446.557 192.508 444.879 197.544 441.521 201.431C436.574 207.086 429.594 209.913 420.582 209.913C411.217 209.913 402.735 207.086 395.137 201.431C389.482 197.544 385.242 193.215 382.414 188.444C379.587 183.673 378.174 177.753 378.174 170.685V152.662C378.174 140.822 375.17 129.611 369.162 121.66C365.429 116.682 360.805 112.731 355.292 109.808C353.912 109.076 352.993 107.671 352.993 106.108V99.8388C352.993 98.2762 353.911 96.8708 355.293 96.1402C360.785 93.2355 365.32 89.3728 368.897 84.5521C374.905 76.6005 377.908 66.8819 377.908 55.3962V39.2279C377.908 33.9269 378.969 28.9792 381.089 24.3849C383.386 19.614 386.479 15.4615 390.366 11.9274C394.077 8.39337 398.494 5.65448 403.619 3.71075C408.743 1.76703 413.956 0.795171 419.257 0.795171C427.562 0.795171 433.746 3.18065 437.811 7.95161C442.051 12.7226 444.172 19.2606 444.172 27.5656C442.405 25.7985 439.843 24.915 436.485 24.915C430.831 24.915 426.148 26.417 422.437 29.421C418.903 32.4249 417.136 36.4891 417.136 41.6134V67.3236C417.136 74.215 416.165 80.3112 414.221 85.6123C410.51 94.6241 402.912 100.809 391.426 104.166C402.912 107.7 410.51 113.885 414.221 122.72C416.165 128.021 417.136 135.521 417.136 142.59V163.264C417.136 168.388 418.903 172.187 422.437 174.661C426.148 177.312 430.654 178.637 435.955 178.637Z" fill="black"/>
<path d="M504.822 188.444C504.822 185.97 505.352 182.259 506.412 177.312C509.592 178.195 512.596 178.637 515.424 178.637C520.725 178.637 525.142 177.312 528.676 174.661C532.387 172.187 534.242 168.388 534.242 163.264V142.59C534.242 135.345 535.303 127.844 537.423 122.72C539.19 117.949 542.106 114.061 546.17 111.057C550.411 108.054 555.005 105.756 559.953 104.166C548.114 100.279 540.604 94.094 537.423 85.6123C535.303 80.488 534.242 74.3917 534.242 67.3236V41.6134C534.242 36.4891 532.387 32.4249 528.676 29.421C525.142 26.417 520.548 24.915 514.894 24.915C511.536 24.915 508.974 25.7985 507.207 27.5656C507.207 19.2606 509.239 12.7226 513.303 7.95161C517.544 3.18065 523.817 0.795171 532.122 0.795171C537.423 0.795171 542.636 1.76703 547.76 3.71075C552.885 5.65448 557.391 8.39337 561.278 11.9274C564.989 15.4615 567.904 19.614 570.025 24.3849C572.322 29.1559 573.47 34.1036 573.47 39.2279V55.3962C573.47 66.8819 576.474 76.6005 582.482 84.5521C586.068 89.3852 590.617 95.3188 596.129 98.7118C597.459 99.531 598.385 100.927 598.385 102.489V108.685C598.385 110.285 597.43 111.729 595.953 112.344C590.777 114.498 586.199 116.453 582.217 121.66C576.209 129.611 573.205 140.822 573.205 152.662V170.685C573.205 177.753 571.792 183.673 568.964 188.444C566.137 193.215 561.896 197.544 556.242 201.431C548.644 207.086 540.162 209.913 530.797 209.913C521.608 209.913 514.54 207.086 509.592 201.431C506.412 197.721 504.822 193.391 504.822 188.444Z" fill="black"/>
<path d="M630.939 204.356C627.582 196.051 625.903 189.072 625.903 183.417C625.903 177.056 628.024 172.727 632.265 170.429C635.269 168.839 640.04 168.044 646.578 168.044L657.18 168.309V42.6736C649.935 42.6736 644.104 42.9387 639.686 43.4688C635.445 43.8222 632.265 44.6174 630.144 45.8543C626.787 37.5493 625.108 30.6579 625.108 25.1801C625.108 19.5256 627.67 15.3731 632.795 12.7226C636.329 10.9556 641.807 10.072 649.228 10.072L668.047 10.3371C677.235 10.6905 684.127 10.8672 688.721 10.8672C695.613 10.8672 701.797 10.6021 707.275 10.072C713.459 9.36523 717.612 8.48172 719.732 7.4215C721.853 12.5459 723.266 16.4333 723.973 19.0839C724.857 21.5577 725.298 24.3849 725.298 27.5656C725.298 34.1036 723.09 38.4328 718.672 40.5532C716.552 41.4367 713.901 42.0552 710.721 42.4086C707.54 42.5853 702.239 42.6736 694.817 42.6736V168.309C702.946 168.132 708.954 167.867 712.841 167.514C716.905 167.16 719.909 166.365 721.853 165.128C724.327 171.136 725.564 178.204 725.564 186.333C725.564 192.341 723.266 196.493 718.672 198.79C715.138 200.557 709.837 201.441 702.769 201.441H658.77C651.349 201.441 645.341 201.617 640.746 201.971C636.152 202.324 632.883 203.119 630.939 204.356Z" fill="black"/>
<path d="M798.656 160.984C803.232 165.56 805.52 171.192 805.52 177.88C805.52 184.568 803.232 190.2 798.656 194.776C794.08 199.352 788.448 201.64 781.76 201.64C775.072 201.64 769.44 199.352 764.864 194.776C760.288 190.2 758 184.568 758 177.88C758 171.192 760.288 165.56 764.864 160.984C769.44 156.408 775.072 154.12 781.76 154.12C788.448 154.12 794.08 156.408 798.656 160.984Z" fill="black"/>
<path d="M899.23 209.56C873.71 209.56 853.734 201.904 839.302 186.592C833.494 179.904 830.59 173.392 830.59 167.056C830.59 159.136 833.406 152.184 839.038 146.2C844.142 140.92 849.422 137.664 854.878 136.432C859.454 147.344 865.262 156.584 872.302 164.152C879.518 171.544 888.054 175.24 897.91 175.24C908.822 175.24 916.918 172.776 922.198 167.848C927.478 162.92 930.118 156.408 930.118 148.312C930.118 140.04 927.214 133.616 921.406 129.04C915.598 124.464 906.886 120.592 895.27 117.424C874.15 111.968 858.222 101.672 847.486 86.536C840.974 77.208 837.718 66.208 837.718 53.536C837.718 36.464 844.494 23.088 858.046 13.408C864.03 9.36 870.894 6.28 878.638 4.16801C886.558 2.056 894.83 1 903.454 1C916.302 1 927.39 2.76 936.718 6.28001C949.214 11.032 955.462 18.248 955.462 27.928C955.462 32.856 953.966 37.696 950.974 42.448C948.158 47.024 944.462 50.368 939.886 52.48C934.958 46.496 929.678 41.92 924.046 38.752C918.414 35.408 911.55 33.736 903.454 33.736C895.71 33.736 888.758 35.496 882.598 39.016C876.614 42.536 873.622 47.904 873.622 55.12C873.622 61.632 876.526 67.352 882.334 72.28C888.318 77.208 896.766 81.168 907.678 84.16C928.27 89.616 943.582 97.536 953.614 107.92C963.646 118.304 968.662 132.12 968.662 149.368C968.662 167.848 962.326 182.456 949.654 193.192C943.494 198.472 936.102 202.52 927.478 205.336C919.03 208.152 909.614 209.56 899.23 209.56Z" fill="black"/>
<path d="M1090.49 205.6C1074.83 205.6 1060.75 203.048 1048.25 197.944C1035.75 192.664 1025.19 185.272 1016.57 175.768C1007.95 166.616 1001.43 155.792 997.034 143.296C992.634 130.8 990.434 117.336 990.434 102.904C990.434 87.944 992.898 74.304 997.826 61.984C1002.93 49.488 1010.06 38.664 1019.21 29.512C1028.19 20.536 1038.66 13.672 1050.63 8.92001C1062.77 4.16801 1075.88 1.79201 1089.96 1.79201C1104.75 1.79201 1118.3 4.16801 1130.62 8.92001C1143.11 13.672 1153.76 20.536 1162.56 29.512C1171.36 38.488 1178.05 49.224 1182.63 61.72C1187.38 74.216 1189.75 87.856 1189.75 102.64C1189.75 117.248 1187.64 130.8 1183.42 143.296C1179.19 155.616 1172.95 166.352 1164.67 175.504C1155.87 185.008 1145.23 192.4 1132.73 197.68C1120.41 202.96 1106.33 205.6 1090.49 205.6ZM1031.88 99.208C1031.88 108.184 1033.11 116.984 1035.58 125.608C1038.04 134.056 1041.65 141.536 1046.4 148.048C1051.33 155.264 1057.49 160.896 1064.88 164.944C1072.27 168.992 1080.72 171.016 1090.23 171.016C1099.03 171.016 1107.03 169.168 1114.25 165.472C1121.64 161.6 1127.98 156.32 1133.26 149.632C1138.19 143.296 1141.97 135.728 1144.61 126.928C1147.25 118.128 1148.57 108.888 1148.57 99.208C1148.57 90.408 1147.07 82.048 1144.08 74.128C1141.09 66.208 1136.95 59.256 1131.67 53.272C1126.22 47.112 1119.88 42.36 1112.67 39.016C1105.63 35.496 1098.15 33.736 1090.23 33.736C1082.13 33.736 1074.47 35.408 1067.26 38.752C1060.22 42.096 1054.06 46.848 1048.78 53.008C1043.5 58.992 1039.36 66.032 1036.37 74.128C1033.38 82.048 1031.88 90.408 1031.88 99.208Z" fill="black"/>
<path d="M1242.78 203.488C1232.93 203.488 1226.15 202.52 1222.45 200.584C1218.93 198.648 1217.17 194.424 1217.17 187.912C1217.17 182.984 1217.61 176.736 1218.49 169.168C1220.08 154.032 1220.87 141.8 1220.87 132.472V55.912C1220.87 48.872 1220.52 40.864 1219.81 31.888C1219.11 22.912 1217.88 16.664 1216.12 13.144C1223.16 10.152 1230.11 8.65601 1236.97 8.65601H1284.23C1300.6 8.65601 1314.15 11.736 1324.89 17.896C1331.75 22.12 1337.21 27.928 1341.25 35.32C1345.3 42.536 1347.5 52.128 1347.85 64.096C1347.85 76.768 1344.69 87.856 1338.35 97.36C1332.01 106.688 1322.25 113.64 1309.05 118.216L1332.28 152.272C1336.85 159.136 1343.28 167.144 1351.55 176.296C1360 185.272 1366.07 190.376 1369.77 191.608C1366.95 194.424 1363.96 196.624 1360.79 198.208C1357.62 199.616 1353.84 200.76 1349.44 201.64C1343.45 202.696 1338.44 203.224 1334.39 203.224C1327.7 203.224 1322.95 202.08 1320.13 199.792C1318.2 198.208 1314.85 193.808 1310.1 186.592C1305.35 179.2 1297.34 166.528 1286.08 148.576L1270.24 122.968H1258.09C1258.09 158.872 1261.26 183.776 1267.6 197.68C1266.37 199.264 1263.2 200.584 1258.09 201.64C1252.99 202.872 1247.89 203.488 1242.78 203.488ZM1258.09 91.288H1280.27C1291.18 91.288 1298.93 89.176 1303.5 84.952C1308.25 80.552 1310.63 73.688 1310.63 64.36C1310.63 55.912 1307.81 49.752 1302.18 45.88C1297.43 42.536 1290.57 40.864 1281.59 40.864H1257.83L1258.09 91.288Z" fill="black"/>
<path d="M1633.04 203.488C1626 203.488 1620.9 202.696 1617.73 201.112C1612.8 198.648 1610.34 194.336 1610.34 188.176C1610.34 184.304 1610.87 176.384 1611.92 164.416C1613.33 150.688 1614.03 139.952 1614.03 132.208V56.968C1614.03 33.56 1612.45 19.216 1609.28 13.936C1616.15 10.944 1624.33 9.448 1633.83 9.448C1641.05 9.448 1645.89 10.944 1648.35 13.936C1649.59 15.52 1650.38 17.544 1650.73 20.008C1651.26 22.472 1651.52 25.904 1651.52 30.304L1651.26 79.672L1691.91 41.656C1703.53 30.568 1709.34 21.504 1709.34 14.464C1709.34 13.584 1709.16 12.616 1708.81 11.56C1714.62 10.328 1720.51 9.712 1726.5 9.712C1731.6 9.712 1736.35 10.24 1740.75 11.296C1748.15 13.056 1751.84 16.136 1751.84 20.536C1751.84 22.296 1750.87 24.584 1748.94 27.4C1747.18 30.04 1744.45 33.56 1740.75 37.96C1734.77 45 1726.85 53.272 1716.99 62.776L1680.56 98.68L1720.69 144.088C1730.02 154.296 1738.38 162.128 1745.77 167.584C1755.45 175.152 1763.63 179.552 1770.32 180.784C1767.68 187.824 1762.14 193.544 1753.69 197.944C1746.65 201.64 1739.52 203.488 1732.31 203.488C1729.31 203.488 1726.94 203.136 1725.18 202.432C1723.59 201.904 1721.57 200.32 1719.11 197.68C1706.96 184.304 1688.31 163.184 1663.14 134.32L1651.26 120.856C1651.26 157.992 1654.43 183.6 1660.76 197.68C1659.53 199.264 1655.92 200.584 1649.94 201.64C1643.95 202.872 1638.32 203.488 1633.04 203.488Z" fill="black"/>
<path d="M1803.6 204.544C1800.26 196.272 1798.59 189.32 1798.59 183.688C1798.59 177.352 1800.7 173.04 1804.92 170.752C1807.92 169.168 1812.67 168.376 1819.18 168.376L1829.74 168.64V43.504C1822.52 43.504 1816.72 43.768 1812.32 44.296C1808.09 44.648 1804.92 45.44 1802.81 46.672C1799.47 38.4 1797.8 31.536 1797.8 26.08C1797.8 20.448 1800.35 16.312 1805.45 13.672C1808.97 11.912 1814.43 11.032 1821.82 11.032L1840.56 11.296C1849.72 11.648 1856.58 11.824 1861.16 11.824C1868.02 11.824 1874.18 11.56 1879.64 11.032C1885.8 10.328 1889.93 9.44801 1892.04 8.392C1894.16 13.496 1895.56 17.368 1896.27 20.008C1897.15 22.472 1897.59 25.288 1897.59 28.456C1897.59 34.968 1895.39 39.28 1890.99 41.392C1888.88 42.272 1886.24 42.888 1883.07 43.24C1879.9 43.416 1874.62 43.504 1867.23 43.504V168.64C1875.32 168.464 1881.31 168.2 1885.18 167.848C1889.23 167.496 1892.22 166.704 1894.16 165.472C1896.62 171.456 1897.85 178.496 1897.85 186.592C1897.85 192.576 1895.56 196.712 1890.99 199C1887.47 200.76 1882.19 201.64 1875.15 201.64H1831.32C1823.93 201.64 1817.95 201.816 1813.37 202.168C1808.8 202.52 1805.54 203.312 1803.6 204.544Z" fill="black"/>
<path d="M1555.73 29.512C1564.53 38.488 1571.21 49.224 1575.79 61.72C1580.54 74.216 1582.92 87.856 1582.92 102.64C1582.92 117.248 1580.81 130.8 1576.58 143.296C1572.36 155.616 1554.77 177.848 1546.5 187C1548.62 159.807 1546.5 145 1539.5 123.5C1542.14 114.7 1541.73 108.888 1541.73 99.208C1541.73 90.408 1540.24 82.048 1537.25 74.128C1534.25 66.208 1530.12 59.256 1524.84 53.272C1541.73 47.5 1554.5 36.5 1555.73 29.512Z" fill="black"/>
<path fill-rule="evenodd" clip-rule="evenodd" d="M1515 33.5C1518.51 29.9432 1509 23.5 1497.37 22.375C1490.58 21.7183 1483.35 20.9773 1480.55 20.9773C1478.68 16.3182 1471.2 6 1455.5 6C1435.88 6 1379.31 39.5 1384 111C1388.19 174.81 1425.78 193.547 1443.7 202.48L1444.11 202.682V214.87C1444.11 217.797 1445.44 220.566 1447.72 222.398C1451.91 225.758 1458.03 225.058 1461.35 220.838L1467.94 212.466C1471.21 213.398 1478.87 213.864 1483.35 213.864C1487.84 213.864 1494.57 213.398 1497.37 212.466L1488.4 241.451C1483.62 256.915 1488.63 273.737 1501.09 284.067L1516 296C1514 291.5 1528.3 222.381 1531.5 194C1536.36 150.944 1524 107.568 1498.77 88C1473.54 68.4318 1467.94 61.5114 1470.74 51.7273C1473.54 41.9432 1486.79 37 1498 37C1506.97 37 1512.5 36.0358 1515 33.5ZM1490.5 120C1498.91 133.284 1501.09 148 1499 173C1490.52 173.939 1461.07 180.328 1444.11 165C1418.11 141.5 1412 104.5 1423.5 93C1445 71.5 1466.74 82.4642 1490.5 120Z" fill="black"/>
</svg>
